<svg width="14" height="15" viewBox="0 0 14 15" fill="none" xmlns="http://www.w3.org/2000/svg">
<g clip-path="url(#clip0_5288_296)">
<path d="M6.60002 6H7.73335V4.3H9.43335V3.16667H7.73335V1.46667H6.60002V3.16667H4.90002V4.3H6.60002V6ZM4.33335 11.1C3.71002 11.1 3.20568 11.61 3.20568 12.2333C3.20568 12.8567 3.71002 13.3667 4.33335 13.3667C4.95668 13.3667 5.46668 12.8567 5.46668 12.2333C5.46668 11.61 4.95668 11.1 4.33335 11.1ZM10 11.1C9.37668 11.1 8.87235 11.61 8.87235 12.2333C8.87235 12.8567 9.37668 13.3667 10 13.3667C10.6234 13.3667 11.1334 12.8567 11.1334 12.2333C11.1334 11.61 10.6234 11.1 10 11.1ZM4.42968 9.25833L4.44668 9.19033L4.95668 8.26667H9.17835C9.60335 8.26667 9.97735 8.03433 10.17 7.683L12.3574 3.71067L11.3714 3.16667H11.3657L10.7424 4.3L9.17835 7.13333H5.20035L5.12668 6.98033L3.85735 4.3L3.31902 3.16667L2.78635 2.03333H0.93335V3.16667H2.06668L4.10668 7.46767L3.34168 8.856C3.25102 9.01467 3.20002 9.20167 3.20002 9.4C3.20002 10.0233 3.71002 10.5333 4.33335 10.5333H11.1334V9.4H4.57135C4.49768 9.4 4.42968 9.33767 4.42968 9.25833Z" fill="white"/>
</g>
<defs>
<clipPath id="clip0_5288_296">
<rect width="13.6" height="13.6" fill="white" transform="translate(0.366699 0.9)"/>
</clipPath>
</defs>
</svg>
